<svg width="35" height="35" viewBox="0 0 35 35" fill="none" xmlns="http://www.w3.org/2000/svg">
<g clip-path="url(#clip0_4_481)">
<path d="M0.0541455 26.9846C0.600445 31.5457 6.09707 34.9848 12.8399 34.9848C18.9019 34.9848 24.0514 32.1872 25.3643 28.1813L25.3655 28.1793C25.5709 27.5609 25.6769 26.9142 25.6798 26.2628C25.6767 26.0664 25.663 25.8707 25.6388 25.676L25.6319 25.6139V25.6136C25.3931 23.8872 24.5379 22.3059 23.2236 21.1611C24.72 21.8197 26.3324 22.1734 27.967 22.2022C29.3241 22.2275 30.6635 21.8913 31.8475 21.2281L31.8481 21.2273C32.3026 20.9691 32.7216 20.6527 33.094 20.286C33.3742 20.0007 33.6244 19.6878 33.8415 19.3521L33.8421 19.3513C36.3037 15.6471 34.7286 9.42211 30.1779 4.87161C25.9639 0.657664 20.1703 -1.05647 16.4007 0.796447C15.7945 1.08969 15.2408 1.48068 14.7618 1.95374C14.5871 2.1327 14.4241 2.3225 14.2733 2.52226L14.273 2.52255C11.4689 6.13348 12.9653 12.6552 17.6799 17.3698C18.1459 17.8343 18.636 18.274 19.1478 18.6873C17.1336 17.921 14.9952 17.5323 12.8399 17.5408C6.81977 17.5408 1.54087 20.4325 0.287826 24.4164C0.0986018 25.0135 0.00142488 25.6361 0 26.2628C0.00341972 26.5042 0.0213732 26.745 0.0538605 26.9844L0.0541455 26.9846ZM12.8399 33.8175C7.1626 33.8175 2.31657 31.1219 1.35193 27.5606C1.37501 27.5629 1.39866 27.5654 1.42118 27.5677C1.62978 27.5914 1.82841 27.6173 2.01393 27.6469C2.041 27.6512 2.06608 27.656 2.09287 27.6606C2.26613 27.6894 2.43142 27.7204 2.59072 27.7535C2.61722 27.7589 2.64487 27.764 2.67137 27.7697C2.84178 27.8062 3.00622 27.8444 3.1678 27.884C3.20285 27.8926 3.23762 27.9014 3.2721 27.91C3.4277 27.949 3.58158 27.9883 3.7369 28.0288C5.24157 28.4557 6.80096 28.6583 8.36463 28.6298C9.92658 28.6586 11.4843 28.4554 12.9867 28.0274C14.3927 27.6236 15.8515 27.4332 17.314 27.4625C18.7771 27.4332 20.2365 27.6236 21.6431 28.0271C21.7893 28.065 21.9375 28.1032 22.0879 28.1411C22.1227 28.1499 22.1575 28.1585 22.1925 28.1673C22.3521 28.2069 22.516 28.2457 22.6864 28.283C22.7072 28.2875 22.7294 28.2918 22.7505 28.2964C22.9081 28.33 23.0725 28.3622 23.2441 28.3927C23.2746 28.3981 23.3037 28.4038 23.3344 28.4089C23.5205 28.4409 23.7172 28.4697 23.9249 28.4959C23.9434 28.4984 23.9588 28.5016 23.9776 28.5038C22.4692 31.6215 17.9484 33.8175 12.8399 33.8175ZM29.3526 5.69719C33.1761 9.521 34.7768 14.7529 33.2465 18.0327C33.2308 18.0144 33.2149 17.9962 33.1997 17.978C33.045 17.7959 32.9017 17.62 32.774 17.453C32.7626 17.4382 32.7529 17.4242 32.7418 17.4097C32.6201 17.249 32.509 17.094 32.4049 16.9429C32.3881 16.9184 32.3705 16.8933 32.3539 16.8691C32.2479 16.7127 32.1488 16.5596 32.0533 16.408C32.035 16.379 32.0171 16.3502 31.9989 16.3211C31.9068 16.1735 31.8168 16.0264 31.7264 15.878C30.9447 14.5243 29.967 13.2941 28.8254 12.2269C27.7248 11.1191 26.4655 10.181 25.0893 9.44349C23.7995 8.7547 22.6206 7.87669 21.5915 6.83823C20.522 5.84138 19.6078 4.68979 18.8794 3.42222C18.8053 3.29996 18.7298 3.17628 18.6528 3.05175L18.5939 2.95685C18.5112 2.82405 18.426 2.68955 18.3348 2.55133C18.3248 2.53594 18.3137 2.51998 18.3035 2.5046C18.2211 2.38035 18.1333 2.25296 18.0401 2.12216C18.0185 2.09195 17.9977 2.06203 17.9755 2.03125C17.8714 1.88762 17.7603 1.73972 17.6395 1.5864C17.6315 1.57586 17.6249 1.56645 17.6167 1.55619C20.9517 0.434242 25.7425 2.08682 29.3526 5.69719ZM15.5871 2.77903C15.8675 2.50118 16.1812 2.25895 16.5209 2.05832C16.5309 2.07001 16.5392 2.08112 16.5489 2.0928C16.6777 2.24954 16.7948 2.39944 16.9039 2.54478C16.9216 2.56843 16.9407 2.59294 16.9581 2.61631C17.0672 2.76449 17.1675 2.90784 17.2624 3.04805C17.2813 3.07597 17.3001 3.10362 17.3183 3.13126C17.4109 3.27033 17.4995 3.4074 17.5842 3.54305C17.5996 3.56756 17.6147 3.59207 17.6298 3.61657C17.7147 3.75365 17.7979 3.88987 17.8817 4.02808C18.662 5.38029 19.6383 6.60968 20.7788 7.67606C21.8793 8.78348 23.1387 9.72162 24.5148 10.4594C25.8046 11.1479 26.9836 12.0259 28.0126 13.0647C29.0835 14.0627 29.9992 15.2154 30.7293 16.4844C30.7894 16.583 30.8498 16.6822 30.9111 16.7822C30.9319 16.8158 30.9536 16.8503 30.9747 16.8842C31.0177 16.9535 31.0607 17.0227 31.1052 17.0928C31.1314 17.1341 31.159 17.176 31.1858 17.2176C31.2277 17.2829 31.2702 17.3482 31.3146 17.4148C31.3443 17.4593 31.3753 17.5049 31.4064 17.5502C31.4506 17.6152 31.4962 17.681 31.5432 17.7477C31.5774 17.7959 31.6127 17.8449 31.6483 17.8942C31.6968 17.9606 31.7467 18.0281 31.7985 18.0965C31.8376 18.1481 31.8775 18.2005 31.9185 18.2532C31.9724 18.3225 32.0294 18.3935 32.0872 18.465C32.1314 18.5197 32.1755 18.5744 32.2226 18.6306C32.2836 18.7041 32.3491 18.7799 32.4149 18.856C32.4656 18.9144 32.5149 18.9722 32.5682 19.0321C32.5813 19.0469 32.5925 19.0606 32.6059 19.0754C32.5016 19.2105 32.389 19.3393 32.2687 19.4607C32.0801 19.6476 31.8749 19.8175 31.6557 19.9682L31.6355 19.946C31.5982 19.9035 31.5648 19.8634 31.5292 19.822C31.4617 19.7437 31.3944 19.6659 31.3323 19.5906C31.2938 19.5439 31.2579 19.4989 31.2212 19.4533C31.1673 19.386 31.114 19.3193 31.0639 19.2544C31.0279 19.2079 30.9937 19.1626 30.9595 19.117C30.9131 19.0552 30.8678 18.9939 30.8242 18.9335C30.792 18.8893 30.7606 18.8454 30.7301 18.8018C30.6874 18.7411 30.6458 18.681 30.6056 18.6214C30.578 18.5807 30.55 18.5399 30.5233 18.4995C30.4825 18.4376 30.4426 18.3764 30.4033 18.3154C30.3793 18.2783 30.3551 18.241 30.3317 18.2039C30.2896 18.1375 30.2485 18.0714 30.2078 18.0056C30.1884 17.9745 30.1687 17.9432 30.1496 17.9118C30.0918 17.8178 30.0342 17.7238 29.977 17.6294C29.1944 16.2758 28.2164 15.0453 27.0745 13.9777C25.9739 12.87 24.7146 11.9319 23.3384 11.1944C22.0486 10.5059 20.8697 9.62758 19.8406 8.58913C18.7703 7.59142 17.8552 6.43926 17.1257 5.17112C17.0356 5.02322 16.9436 4.87332 16.8495 4.72171C16.8296 4.68979 16.8099 4.65788 16.7897 4.62567C16.6936 4.47293 16.5916 4.31676 16.4836 4.1566C16.4611 4.12298 16.438 4.08935 16.4146 4.05544C16.3021 3.89158 16.181 3.72287 16.0482 3.54704C16.0259 3.51797 16.002 3.48776 15.9795 3.45841C15.8356 3.27118 15.6814 3.07854 15.5064 2.87392L15.5019 2.86823C15.5301 2.83745 15.5583 2.80781 15.5871 2.77903ZM18.5052 16.5445C14.4603 12.4993 12.9322 7.0967 14.7926 3.84085C14.8065 3.85795 14.8213 3.87533 14.835 3.89215C14.9604 4.0466 15.0775 4.19593 15.1844 4.33984C15.2046 4.36692 15.2229 4.39313 15.2425 4.41992C15.3389 4.55187 15.4295 4.68068 15.5144 4.80635C15.5295 4.82915 15.5457 4.85195 15.5606 4.87446C15.6543 5.01495 15.7427 5.15288 15.8284 5.28995C15.8473 5.31988 15.8655 5.34951 15.884 5.37915C15.9661 5.51167 16.047 5.6439 16.1282 5.77755C16.9096 7.13005 17.8868 8.36001 19.0279 9.42696C20.1285 10.5344 21.3878 11.4725 22.7639 12.21C24.0537 12.8988 25.2327 13.7768 26.2617 14.8153C27.3329 15.8138 28.2491 16.9669 28.9798 18.2359C29.0696 18.3835 29.1613 18.5325 29.2551 18.6836C29.277 18.7189 29.2987 18.754 29.3212 18.7893C29.419 18.9443 29.5218 19.1028 29.6321 19.2655C29.6544 19.2983 29.678 19.3319 29.7008 19.3652C29.8151 19.5308 29.9362 19.7006 30.0716 19.8788L30.0889 19.9027C30.2263 20.0825 30.3819 20.2729 30.5478 20.4692C30.5691 20.4943 30.5848 20.5165 30.6067 20.5422C27.2939 21.9132 22.2504 20.2888 18.5052 16.5445ZM12.8399 18.7081C18.5676 18.7081 23.4233 21.433 24.3433 25.0314C24.3205 25.0288 24.2971 25.0266 24.2749 25.0243C24.0628 25.0006 23.8611 24.9744 23.673 24.9445C23.6479 24.9405 23.6245 24.9359 23.5997 24.932C23.4268 24.9035 23.2618 24.8724 23.103 24.8396C23.0714 24.8331 23.0386 24.8271 23.0076 24.8202C22.8403 24.7846 22.6787 24.747 22.52 24.7082C22.4784 24.698 22.4365 24.6877 22.3952 24.6772C22.2438 24.6393 22.0936 24.6011 21.9423 24.5618C20.4377 24.1349 18.878 23.9323 17.314 23.9608C15.7521 23.932 14.1944 24.1349 12.692 24.5632C11.2859 24.9667 9.82713 25.1571 8.36463 25.128C6.90127 25.1571 5.44191 24.9667 4.03498 24.5635C3.8905 24.5259 3.7443 24.4882 3.59612 24.4509C3.55565 24.4407 3.51518 24.4307 3.47415 24.4204C3.31627 24.3814 3.1544 24.3432 2.9857 24.3064C2.95919 24.3004 2.93127 24.295 2.90419 24.2893C2.74831 24.2563 2.58559 24.2246 2.41603 24.1947C2.38468 24.1893 2.35476 24.1833 2.32284 24.1779C2.13561 24.1463 1.93698 24.1178 1.72838 24.0916C1.70729 24.089 1.68962 24.0856 1.66825 24.083C3.145 20.93 7.68154 18.7081 12.8399 18.7081ZM1.28211 25.2146L1.30405 25.2172C1.52975 25.2403 1.73807 25.2682 1.9367 25.2984C1.96491 25.303 1.99483 25.3067 2.02276 25.3113C2.21427 25.342 2.39437 25.3757 2.56849 25.4116C2.60354 25.4187 2.63888 25.4258 2.67336 25.4335C2.8415 25.4694 3.00422 25.5068 3.16352 25.5458C3.20028 25.5549 3.23648 25.564 3.27295 25.5731C3.42941 25.6125 3.58472 25.6524 3.74089 25.6931C5.24385 26.1209 6.8021 26.3238 8.36463 26.2953C9.92658 26.3241 11.4843 26.1209 12.9867 25.6928C14.3927 25.289 15.8515 25.0987 17.314 25.128C18.7791 25.0989 20.2402 25.289 21.6491 25.6917C21.7525 25.7185 21.8565 25.7453 21.9614 25.7721C22.0013 25.7823 22.0421 25.7923 22.0823 25.8023C22.1541 25.8205 22.2262 25.8385 22.2997 25.8561C22.3424 25.8664 22.3866 25.8766 22.4302 25.8869C22.5029 25.904 22.5764 25.9208 22.6513 25.9373C22.6978 25.9476 22.7451 25.9576 22.7927 25.9676C22.8674 25.9835 22.9437 25.9989 23.0215 26.014C23.0717 26.0237 23.1224 26.0334 23.1737 26.0428C23.2541 26.0573 23.337 26.0716 23.4208 26.0853C23.4732 26.0938 23.5254 26.1024 23.5792 26.1106C23.6699 26.1246 23.7645 26.1371 23.8602 26.1499C23.9118 26.1568 23.9622 26.1639 24.0158 26.1702C24.1275 26.1836 24.2446 26.1955 24.3638 26.2072C24.4068 26.2112 24.447 26.2161 24.4912 26.22L24.5122 26.2223C24.5125 26.2357 24.5125 26.2494 24.5125 26.2628C24.5114 26.6373 24.4669 27.0103 24.38 27.3745L24.3564 27.3716C24.1346 27.3486 23.93 27.3209 23.7345 27.291C23.7043 27.2861 23.6727 27.2822 23.6431 27.2773C23.4547 27.2468 23.2772 27.2135 23.1059 27.1781C23.0688 27.1707 23.0321 27.163 22.9956 27.1553C22.8303 27.1197 22.6696 27.0827 22.5126 27.0442C22.4747 27.0348 22.437 27.0251 22.3994 27.0157C22.245 26.9769 22.0919 26.9376 21.9375 26.8974C20.4345 26.4694 18.8766 26.2665 17.314 26.2953C15.7521 26.2665 14.1944 26.4694 12.692 26.8977C11.2859 27.3012 9.82713 27.4916 8.36463 27.4625C6.89985 27.4913 5.43877 27.3012 4.03014 26.8989C3.92441 26.8715 3.81811 26.8439 3.71096 26.8165C3.67933 26.8085 3.64656 26.8005 3.61436 26.7923C3.53713 26.7729 3.45933 26.7535 3.37982 26.7341C3.33593 26.7236 3.29062 26.7133 3.24588 26.7028C3.17578 26.6863 3.1051 26.67 3.033 26.6541C2.98342 26.643 2.93241 26.6324 2.8814 26.6216C2.81101 26.6068 2.73919 26.5922 2.66624 26.578C2.61152 26.5671 2.55624 26.5569 2.49981 26.5466C2.42629 26.5332 2.35049 26.5204 2.27383 26.5076C2.21455 26.4979 2.15528 26.4879 2.09372 26.4788C2.01478 26.4666 1.93214 26.4554 1.84921 26.4446C1.78538 26.4361 1.7224 26.4272 1.65628 26.4192C1.56481 26.4084 1.46848 26.3987 1.37216 26.389C1.30947 26.3828 1.24934 26.3756 1.18408 26.3699L1.16926 26.3685C1.16812 26.3332 1.16726 26.2978 1.16726 26.2628C1.16783 25.9103 1.20631 25.5589 1.28211 25.2146Z" fill="black"/>
<path d="M6.6884 30.1178C6.44845 29.9939 6.22047 29.8636 6.00446 29.7271C5.73174 29.5564 5.37238 29.6388 5.20111 29.9109C5.02984 30.1831 5.11106 30.5427 5.38264 30.7149C5.62544 30.8679 5.88164 31.0144 6.15151 31.1546C6.43791 31.3028 6.79014 31.1908 6.93833 30.9047C7.08652 30.6183 6.97481 30.266 6.6884 30.1178Z" fill="black"/>
<path d="M20.4496 29.1677C18.6255 30.6393 15.8518 31.4831 12.8399 31.4831C11.3175 31.4953 9.8029 31.2676 8.35151 30.8083C8.04545 30.7091 7.71687 30.8767 7.61713 31.1827C7.51739 31.4888 7.68438 31.8177 7.99016 31.918C9.5581 32.4155 11.1947 32.6626 12.8399 32.6504C16.1137 32.6504 19.1544 31.7122 21.1826 30.0762C21.4334 29.8735 21.4727 29.5062 21.2703 29.2554C21.068 29.0044 20.7004 28.965 20.4496 29.1677Z" fill="black"/>
<path d="M16.6894 9.21273C16.625 8.98276 16.5702 8.75563 16.5255 8.53164C16.4622 8.2156 16.1547 8.0107 15.8387 8.07397C15.5227 8.13723 15.3178 8.44472 15.381 8.76076C15.4315 9.01239 15.493 9.26773 15.5654 9.52735C15.6523 9.83769 15.9744 10.0186 16.2847 9.93201C16.595 9.84509 16.7763 9.52307 16.6894 9.21273Z" fill="black"/>
<path d="M28.1331 19.2918C28.1531 18.9701 27.9083 18.6931 27.5866 18.6734C25.1865 18.5255 22.3393 17.0773 20.1561 14.8938C19.0569 13.808 18.1422 12.5501 17.4482 11.1697C17.3046 10.8816 16.9552 10.7642 16.6668 10.9069C16.3784 11.0497 16.2602 11.3991 16.4024 11.6878C17.1527 13.1819 18.1419 14.5435 19.3308 15.7191C21.7428 18.1314 24.8023 19.6714 27.5147 19.8384C27.527 19.8392 27.5392 19.8395 27.5512 19.8395C27.8593 19.839 28.114 19.5993 28.1331 19.2918Z" fill="black"/>
</g>
<defs>
<clipPath id="clip0_4_481">
<rect width="35" height="35" fill="white"/>
</clipPath>
</defs>
</svg>
